<?xml version="1.0" encoding="UTF-8"?>
<svg xmlns="http://www.w3.org/2000/svg" xmlns:xlink="http://www.w3.org/1999/xlink" width="60pt" height="60pt" viewBox="0 0 60 60" version="1.1">
<g id="surface911064">
<path style=" stroke:none;fill-rule:nonzero;fill:rgb(58.431373%,64.705882%,65.098039%);fill-opacity:1;" d="M 30 4 C 29.476562 4 28.976562 4.203125 28.601562 4.570312 L 6.785156 22.414062 C 6.761719 22.433594 6.734375 22.453125 6.710938 22.472656 L 6.636719 22.535156 L 6.636719 22.539062 C 6.230469 22.917969 6 23.445312 6 24 C 6 25.105469 6.894531 26 8 26 L 10 26 L 10 48 C 10 50.210938 11.789062 52 14 52 L 46 52 C 48.210938 52 50 50.210938 50 48 L 50 26 L 52 26 C 53.105469 26 54 25.105469 54 24 C 54 23.445312 53.769531 22.914062 53.363281 22.535156 L 53.332031 22.511719 C 53.289062 22.472656 53.242188 22.433594 53.195312 22.398438 L 50 19.785156 L 50 12 C 50 10.894531 49.105469 10 48 10 L 46 10 C 44.894531 10 44 10.894531 44 12 L 44 14.878906 L 31.355469 4.535156 C 30.988281 4.191406 30.503906 4 30 4 Z M 36 30 L 44 30 L 44 46 L 36 46 Z M 36 30 "/>
</g>
</svg>
